PathFileType	4	(X/Y/Z)	C:\Users\willi\Desktop\Data_PaperCallum_v2\17_Akif\Gait02\marker_experimental_temp.trc
DataRate	CameraRate	NumFrames	NumMarkers	Units	OrigDataRate	OrigDataStartFrame	OrigNumFrames
100.000000	100.000000	5	27	mm	100.000000	20	167
Frame#	Time	C7			T10			Clav			Sternum			Right_Back			PCL_CRAN			PCL_RECHTS			PCL_LINKS			RCL_UL_CRAN			RCL_UL_POST			RCL_UL_ANT			RCL_LL_CRAN			RCL_LL_POST			RCL_LL_ANT			Right_Heel			Right_Toe			Right_M5			LCL_UL_CRAN			LCL_UL_POST			LCL_UL_ANT			LCL_LL_CRAN			LCL_LL_POST			LCL_LL_ANT			Left_Heel			Left_Toe			Left_M5			*26			
		X1	Y1	Z1	X2	Y2	Z2	X3	Y3	Z3	X4	Y4	Z4	X5	Y5	Z5	X6	Y6	Z6	X7	Y7	Z7	X8	Y8	Z8	X9	Y9	Z9	X10	Y10	Z10	X11	Y11	Z11	X12	Y12	Z12	X13	Y13	Z13	X14	Y14	Z14	X15	Y15	Z15	X16	Y16	Z16	X17	Y17	Z17	X18	Y18	Z18	X19	Y19	Z19	X20	Y20	Z20	X21	Y21	Z21	X22	Y22	Z22	X23	Y23	Z23	X24	Y24	Z24	X25	Y25	Z25	X26	Y26	Z26	X27	Y27	Z27	

21	0.2	1240.759521484375	1381.981689453125	189.3679809570312	1283.108276367188	1166.370971679688	189.3076934814452	1100.770874023438	1305.377685546875	208.9294281005859	1042.836791992188	1141.706176757813	219.6503448486328	1262.3818359375	1322.162475585938	68.20203399658196	1270.991333007813	992.0762939453126	188.9365692138671	1278.669555664063	932.2094116210939	166.0369567871093	1279.486938476563	932.4112548828126	216.754180908203	1206.025268554688	704.0453491210939	18.69634628295891	1236.682861328125	646.8948974609376	22.3555545806884	1187.029418945313	641.7200927734376	15.22079658508293	1362.876953125	386.3055419921876	34.35634994506827	1420.281982421875	352.9334411621095	33.91719436645499	1379.204833984375	322.9180603027344	37.14151763916007	1613.2666015625	139.0848236083985	118.8140792846679	1461.222778320313	30.3056240081788	119.2337417602538	1511.0615234375	20.31246757507333	67.46990203857412	1101.868408203125	733.7930908203126	364.2113952636718	1095.684326171875	669.2541503906251	358.1739196777343	1051.632080078125	692.2745361328126	359.3336486816406	1013.971618652344	367.8353271484376	325.6403198242187	1022.888671875	303.6525268554688	323.5822143554687	973.9658203125	317.2494201660157	320.8737182617187	1023.577819824219	29.03835868835456	239.0379638671874	818.7677001953125	39.68058013916021	249.0540924072265	864.7493286132813	14.87888431549078	306.5718078613281	nan	nan	nan	
22	0.21	1226.55712890625	1383.273071289063	191.0722351074218	1268.692626953125	1167.611083984375	190.6364288330077	1086.427734375	1306.80712890625	210.2369079589843	1028.238159179688	1143.22607421875	220.7136077880859	1248.446411132813	1323.668090820313	69.87004089355462	1256.288940429688	993.4807739257814	189.7540283203124	1263.9228515625	933.5219116210939	167.1495819091796	1264.828002929688	933.9364624023439	217.8810882568359	1187.839111328125	703.7311401367189	19.6252307891845	1217.585571289063	646.2378540039064	22.72486305236809	1167.831787109375	641.7424316406251	16.03738975524895	1342.622436523438	387.2561645507813	32.63408660888663	1401.286254882813	356.0618286132814	32.82583236694327	1360.947143554688	324.4509582519532	35.09944152832023	1599.790405273438	152.2819366455079	118.3012695312499	1460.610473632813	30.8951129913331	119.7919845581054	1508.624877929688	24.75657653808603	68.10446929931631	1088.345336914063	735.4765014648439	365.7040405273437	1082.765258789063	670.9285278320314	359.6719665527343	1038.510009765625	693.6214599609376	360.7789611816406	1003.181701660156	368.7931823730469	326.5862121582031	1013.244018554688	304.9733886718751	325.6617126464843	964.1580810546875	317.4000244140626	320.9430541992187	1022.870849609375	29.99540901184088	239.286880493164	817.2673950195313	36.79934310913091	248.5765075683593	864.06591796875	13.56204986572271	307.1658630371093	nan	nan	nan	
23	0.22	1212.37939453125	1384.7861328125	192.7483673095702	1254.373291015625	1169.0908203125	191.9802246093749	1072.136108398438	1308.421264648438	211.4745178222656	1013.783874511719	1144.906127929688	221.7048034667968	1234.56787109375	1325.410766601563	71.5069274902343	1241.754516601563	995.0773315429689	190.6278686523437	1249.365234375	935.0469360351564	168.2791900634765	1250.328857421875	935.6381835937501	219.0216827392577	1169.31005859375	703.4995117187501	20.36802673339837	1197.848876953125	645.5008544921876	22.95858383178703	1148.029418945313	641.9079589843751	16.62268066406243	1320.6728515625	388.0325317382813	30.82186698913566	1380.338256835938	358.7894287109376	31.56843566894523	1340.788696289063	325.7759704589844	32.9887046813964	1584.2646484375	165.7732086181641	117.6165008544921	1458.425048828125	32.41202926635751	120.4114837646484	1504.083984375	30.55340576171884	68.49675750732413	1075.315307617188	737.1442260742189	367.2862243652343	1070.271484375	672.5432128906251	361.1730346679687	1025.859619140625	694.8882446289064	362.4327392578124	993.2642822265625	369.5622253417969	327.5600280761718	1004.798095703125	306.0506286621094	327.6345825195312	955.711669921875	316.8901062011719	320.6099853515624	1022.337768554688	30.59013938903815	239.4660339355468	816.2305297851563	34.99629974365239	248.2302246093749	863.5899047851563	12.91859531402593	307.7057800292968	nan	nan	nan	
24	0.23	1198.23779296875	1386.494384765625	194.3878936767577	1240.161865234375	1170.780639648438	193.3419952392577	1057.908935546875	1310.190795898438	212.6355438232421	999.4912109374999	1146.712890625	222.6205749511718	1220.761840820313	1327.353759765625	73.10945892333977	1227.403930664063	996.8372802734376	191.5628967285155	1235.015014648438	936.7568969726564	169.4273376464843	1236.007202148438	937.4874877929689	220.1768798828124	1150.574096679688	703.3851928710939	20.90817070007317	1177.634155273438	644.7210083007814	23.09450340270989	1127.80419921875	642.2556762695314	16.91327476501458	1297.135009765625	388.6306457519532	28.98500251770012	1357.517822265625	361.0025634765626	30.10466384887687	1318.813110351563	326.8591003417969	30.96249389648429	1566.855224609375	179.1500549316407	116.704620361328	1453.884887695313	35.024757385254	120.9737854003905	1496.855590820313	37.62265014648447	68.54693603515616	1062.777099609375	738.7633056640626	368.9042663574218	1058.22509765625	674.0796508789064	362.5865783691406	1013.688232421875	696.0432739257814	364.2082824707031	984.4240112304688	370.1014709472657	328.5313720703124	997.6594848632813	306.8413391113282	329.2722167968749	948.6654052734375	315.9187622070313	320.1678161621093	1021.986694335938	30.88945388793952	239.5699615478515	815.5660400390625	34.01589584350591	247.9894104003906	863.2896118164063	12.72478103637701	308.1423645019531	nan	nan	nan	
25	0.24	1184.142333984375	1388.3681640625	195.9837188720702	1226.066284179688	1172.647827148438	194.7231445312499	1043.75732421875	1312.085083007813	213.7151947021484	985.3712768554686	1148.613037109375	223.4604187011718	1207.042358398438	1329.457275390625	74.67673492431634	1213.24658203125	998.7318115234376	192.558624267578	1220.882690429688	938.6231079101564	170.591827392578	1221.875122070313	939.4556884765626	221.3442077636718	1131.762084960938	703.4384765625001	21.24605369567864	1157.130126953125	643.9790649414064	23.17542457580559	1107.358154296875	642.8422851562501	16.87871360778802	1272.179931640625	389.0852966308594	27.19575500488273	1333.000366210938	362.6863098144532	28.40565109252922	1295.19140625	327.7224426269532	29.17068481445305	1547.771484375	191.9835357666016	115.6023559570312	1446.272827148438	38.74769210815438	121.3430862426757	1486.497924804688	45.715675354004	68.20114898681632	1050.721801757813	740.3118896484376	370.5011596679687	1046.677734375	675.5327148437501	363.8458862304687	1002.015991210938	697.0606079101564	366.0163269042968	976.7994995117188	370.4176330566407	329.4651489257812	991.8145141601563	307.3614196777344	330.4345092773437	942.9104614257813	314.7825622558594	319.9781188964843	1021.803894042969	30.97813796997077	239.6091003417968	815.1831665039063	33.59690093994146	247.8304595947265	863.1273803710938	12.78162860870367	308.4596862792968	nan	nan	nan	
